<?xml version="1.0" standalone="no"?>
<!DOCTYPE svg PUBLIC "-//W3C//DTD SVG 20010904//EN"
 "http://www.w3.org/TR/2001/REC-SVG-20010904/DTD/svg10.dtd">
<svg version="1.0" xmlns="http://www.w3.org/2000/svg"
 width="512.000000pt" height="512.000000pt" viewBox="0 0 512.000000 512.000000"
 preserveAspectRatio="xMidYMid meet">
<metadata>
Created by potrace 1.14, written by Peter Selinger 2001-2017
</metadata>
<g transform="translate(0.000000,512.000000) scale(0.100000,-0.100000)"
fill="#000000" stroke="none">
<path d="M2970 5074 c-30 -8 -68 -17 -85 -20 -35 -6 -116 -59 -168 -111 l-37
-36 -158 -3 c-86 -1 -175 -5 -197 -8 -22 -3 -62 -8 -89 -11 -74 -9 -229 -42
-326 -68 -51 -14 -118 -25 -165 -26 -44 -1 -117 -11 -162 -21 -46 -11 -93 -21
-105 -24 -13 -2 -59 -14 -103 -26 -44 -12 -89 -23 -101 -25 -94 -20 -186 -87
-252 -185 -47 -70 -57 -92 -67 -137 -20 -99 -24 -107 -97 -182 -210 -215 -303
-347 -436 -616 -104 -210 -180 -432 -212 -625 -6 -36 -13 -76 -15 -90 -31
-187 -27 -567 9 -758 59 -315 150 -557 303 -812 93 -155 79 -135 191 -276 252
-316 588 -567 967 -721 120 -49 295 -103 385 -119 14 -3 41 -9 60 -14 19 -5
62 -12 95 -16 33 -3 63 -8 66 -10 9 -5 218 -17 299 -17 66 0 253 12 293 18 12
2 39 6 60 9 20 3 54 9 75 12 101 15 330 81 462 134 55 22 258 120 295 143 303
188 501 357 677 582 27 33 53 66 58 73 47 56 190 286 190 306 0 8 7 19 15 26
8 7 15 16 15 21 0 5 16 40 35 80 19 39 37 80 41 92 3 12 12 36 19 52 31 69 96
297 110 385 3 14 7 41 10 60 3 19 8 44 10 56 13 60 20 179 20 344 0 204 -11
321 -40 465 -11 52 -9 59 23 105 17 25 33 61 36 80 3 19 10 51 16 70 19 63 21
98 9 142 -6 24 -13 52 -15 63 -12 64 -18 84 -37 118 -11 20 -23 37 -26 37 -4
0 -17 17 -30 38 -13 21 -35 45 -50 54 -14 9 -46 30 -70 48 -40 27 -135 63
-169 63 -8 0 -36 33 -62 72 -49 73 -138 185 -204 260 -20 22 -55 65 -77 95
-64 86 -420 332 -634 438 -124 62 -146 76 -151 100 -17 78 -25 100 -42 117
-10 11 -26 34 -36 50 -10 17 -40 46 -67 65 -28 19 -56 40 -62 45 -7 6 -17 11
-22 12 -6 1 -47 11 -92 22 -93 24 -107 24 -183 5z"/>
</g>
</svg>
